# xmcd CD database file
#
# Track frame offsets:
#	150
#	25560
#	58615
#	99947
#	146345
#	166042
#	189582
#	214617
#	254027
#	284315
#	310715
#
# Disc length: 4436 seconds
#
# Revision: 0
# Processed by: cddbd v1.5PL3 Copyright (c) Steve Scherf et al.
# Submitted via: CDex 1.51
#
DISCID=8e11520b
DTITLE=The New Quartet - The New Quartet
DYEAR=1900
DGENRE=Jazz
TTITLE0=Trials and Tribs
TTITLE1=Along Came Betty
TTITLE2=Dagenham Prance
TTITLE3=Fairies Of Oneiros
TTITLE4=Subject
TTITLE5=Little Girl
TTITLE6=Cappuccino Gabrieli
TTITLE7=That-u-be-a Good Idea
TTITLE8=Black Marigolds
TTITLE9=Cotton Tail
TTITLE10=Continuum
EXTD=
EXTT0=
EXTT1=
EXTT2=
EXTT3=
EXTT4=
EXTT5=
EXTT6=
EXTT7=
EXTT8=
EXTT9=
EXTT10=
PLAYORDER=
